<svg width="20" height="22" viewBox="0 0 20 22" fill="none" xmlns="http://www.w3.org/2000/svg">
<path d="M8.14713 17.6667C12.4172 17.6667 15.8789 14.2051 15.8789 9.93495C15.8789 5.66483 12.4172 2.20322 8.14713 2.20322C3.87702 2.20322 0.415405 5.66483 0.415405 9.93495C0.415405 10.08 0.4194 10.2241 0.427285 10.3672C0.526019 12.2564 1.30492 13.9654 2.52372 15.2541L1.76904 16.3651C1.39323 16.9184 1.78954 17.6667 2.45839 17.6667H7.75549L7.75509 17.6579C7.87765 17.6637 8.00096 17.6667 8.12496 17.6667L8.13027 17.6667C8.13589 17.6667 8.14151 17.6667 8.14713 17.6667Z" fill="#3370FF"/>
<path d="M17.9529 17.1928C18.7055 16.3159 19.1602 15.1759 19.1602 13.9297C19.1602 11.1611 16.9158 8.91667 14.1472 8.91667C11.3786 8.91667 9.13416 11.1611 9.13416 13.9297C9.13416 16.6983 11.3786 18.9427 14.1472 18.9427C14.2535 18.9427 14.359 18.9394 14.4636 18.9329V18.9425H17.5727C18.2444 18.9425 18.6401 18.1887 18.2586 17.6358L17.9529 17.1928Z" fill="#00D6B9"/>
</svg>